<svg xmlns="http://www.w3.org/2000/svg" version="1.1" xmlns:xlink="http://www.w3.org/1999/xlink" xmlns:svgjs="http://svgjs.dev/svgjs" width="2000" height="1500" viewBox="0 0 2000 1500"><rect width="2000" height="1500" fill="#020202"></rect><g transform="matrix(0.75,0,0,0.75,249.090909090909,282.7536437246963)"><svg viewBox="0 0 396 247" data-background-color="#020202" preserveAspectRatio="xMidYMid meet" height="1247" width="2000" xmlns="http://www.w3.org/2000/svg" xmlns:xlink="http://www.w3.org/1999/xlink"><g id="tight-bounds" transform="matrix(1,0,0,1,0.2400000000000091,-0.09999999999999432)"><svg viewBox="0 0 395.52 247.2" height="247.2" width="395.52"><g><svg></svg></g><g><svg viewBox="0 0 395.52 247.2" height="247.2" width="395.52"><g transform="matrix(1,0,0,1,114.52305342186665,47.215199999999996)"><svg viewBox="0 0 166.47389315626668 152.7696" height="152.7696" width="166.47389315626668"><g><svg viewBox="0 0 166.47389315626668 152.7696" height="152.7696" width="166.47389315626668"><g transform="matrix(1,0,0,1,108.15159572036924,0)"><svg viewBox="0 0 58.32229743589744 152.7696" height="152.7696" width="58.32229743589744"><g id="textblocktransform"><svg viewBox="0 0 58.32229743589744 152.7696" height="152.7696" width="58.32229743589744" id="textblock"><g><svg viewBox="0 0 58.32229743589744 152.7696" height="152.7696" width="58.32229743589744"><g transform="matrix(1,0,0,1,0,0)"><svg width="58.32229743589744" viewBox="1.6500000953674316 -34.5 13.399999618530273 35.099998474121094" height="152.7696" data-palette-color="#56b6e1"><path d="M13.45-18.78Q13.45-16.55 12.2-11.93 10.95-7.3 10.95-5.9 10.95-4.5 11.5-4.5 12.05-4.5 13.5-5L13.5-5 13.95-5.2 14.85-2.7Q13.15-1.4 10.63-0.4 8.1 0.6 6.05 0.6 4 0.6 2.83-0.55 1.65-1.7 1.65-3.88 1.65-6.05 2.88-10.53 4.1-15 4.1-16.2L4.1-16.2Q4.1-18.05 2.8-19.7L2.8-19.7 2.4-20.25 2.55-21.1Q5.15-21.9 12.65-21.9L12.65-21.9Q13.45-21 13.45-18.78ZM9.73-25.8Q7.45-25.8 6.18-27 4.9-28.2 4.9-30.08 4.9-31.95 6.48-33.23 8.05-34.5 10.3-34.5 12.55-34.5 13.8-33.45 15.05-32.4 15.05-30.5 15.05-28.6 13.53-27.2 12-25.8 9.73-25.8Z" opacity="1" transform="matrix(1,0,0,1,0,0)" fill="#56b6e1" class="undefined-text-0" data-fill-palette-color="primary" id="text-0"></path></svg></g></svg></g></svg></g></svg></g><g transform="matrix(1,0,0,1,0,42.877461258288)"><svg viewBox="0 0 72.08635963076924 67.014677483424" height="67.014677483424" width="72.08635963076924"><g><svg xmlns="http://www.w3.org/2000/svg" xmlns:xlink="http://www.w3.org/1999/xlink" version="1.1" x="0" y="0" viewBox="5 9.26099967956543 90.00000762939453 83.66799926757812" enable-background="new 0 0 100 100" xml:space="preserve" height="67.014677483424" width="72.08635963076924" class="icon-icon-0" data-fill-palette-color="accent" id="icon-0"><path d="M93.561 85.324h-2.334v-3.721c0-0.795-0.648-1.431-1.44-1.431h-4.021V51.977c0-0.703-0.574-1.287-1.285-1.287h-5.258c-0.711 0-1.291 0.584-1.291 1.287v28.197H67.445V52.223c0-0.711-0.578-1.291-1.288-1.291h-5.259c-0.709 0-1.282 0.58-1.282 1.291v27.951H40.388V51.977c0-0.703-0.577-1.287-1.289-1.287h-5.256c-0.712 0-1.289 0.584-1.289 1.287v28.197H22.067V52.223c0-0.711-0.577-1.291-1.29-1.291h-5.255c-0.713 0-1.289 0.58-1.289 1.291v27.951h-4.022c-0.793 0-1.435 0.637-1.435 1.43v3.722h-2.34C5.643 85.324 5 85.973 5 86.766v4.725c0 0.795 0.643 1.438 1.437 1.438h87.124c0.793 0 1.439-0.643 1.439-1.438v-4.725C95 85.973 94.354 85.324 93.561 85.324z" fill="#ffffff" data-fill-palette-color="accent"></path><path d="M53.378 33.605v1.716c0 0.615-0.52 1.111-1.143 1.111h-3.822c-0.628 0-1.143-0.496-1.143-1.111v-1.54c-2.457-0.398-4.492-1.354-6.16-2.908-0.35-0.325-0.547-0.771-0.553-1.241-0.006-0.475 0.186-0.924 0.528-1.261l1.381-1.334c0.31-0.305 0.665-0.523 1.146-0.523 0.05 0 0.102 0.002 0.154 0.005 0.486 0.007 0.948 0.203 1.286 0.545 1.106 1.139 2.763 1.713 4.912 1.713 3.903 0 3.903-1.396 3.903-1.994 0-0.688 0-1.135-2.016-1.351l-3.107-0.267c-6.406-0.515-7.362-4.334-7.362-6.562 0-3.369 2.271-5.815 5.836-6.649V10.37c0-0.616 0.517-1.109 1.142-1.109h3.817c0.634 0 1.142 0.493 1.142 1.109v1.641c1.648 0.376 3.172 0.995 4.42 1.892 0.416 0.306 0.681 0.774 0.724 1.281 0.033 0.507-0.153 1.006-0.522 1.365l-1.34 1.304c-0.351 0.34-0.816 0.515-1.279 0.515-0.369 0-0.744-0.111-1.062-0.338-1.172-0.83-2.562-1.232-4.256-1.232-3.04 0-3.04 1.264-3.04 1.804 0 0.63 0 1.126 2.238 1.352l3.048 0.267c1.796 0.173 7.2 0.695 7.2 6.561C59.45 30.236 57.138 32.703 53.378 33.605z" fill="#ffffff" data-fill-palette-color="accent"></path><g fill="#ffffff" data-fill-palette-color="accent"><path d="M92.902 41.179L61.135 23.627c0.359 1.05 0.502 2.135 0.502 3.153 0 3.903-2.242 6.958-6.076 8.434v0.105c0 1.82-1.494 3.298-3.328 3.298H48.41c-1.764 0-3.211-1.366-3.32-3.086-2.1-0.601-3.939-1.628-5.477-3.062-0.781-0.729-1.235-1.759-1.245-2.82-0.013-1.07 0.423-2.109 1.194-2.851l1.369-1.331c0.278-0.271 0.569-0.494 0.877-0.67-0.311-0.278-0.594-0.581-0.854-0.908-0.26-0.325-0.489-0.672-0.693-1.035L6.949 41.26c-1.092 0.604-1.639 1.867-1.327 3.077 0.312 1.205 1.4 2.05 2.649 2.05h83.456c0.002 0 0.008 0 0.012 0 1.514 0 2.734-1.224 2.734-2.733C94.473 42.558 93.828 41.617 92.902 41.179z" fill="#ffffff" data-fill-palette-color="accent"></path></g></svg></g></svg></g></svg></g></svg></g><path d="M296.824 41.215L296.824 0 49.624 0 49.624 247.2 296.824 247.2 296.824 205.985 283.047 205.985 283.047 233.423 63.401 233.423 63.401 13.777 283.047 13.777 283.047 41.215Z" fill="#56b6e1" stroke="transparent" data-fill-palette-color="primary"></path></svg></g><defs></defs></svg><rect width="395.52" height="247.2" fill="none" stroke="none" visibility="hidden"></rect></g></svg></g></svg>